<svg version="1.1" xmlns="http://www.w3.org/2000/svg" viewBox="0 0 988.1111111111117 837.666666666667" width="1976.2222222222233" height="1675.333333333334">
  <!-- svg-source:excalidraw -->
  
  <defs>
    <style>
      @font-face {
        font-family: "Virgil";
        src: url("https://excalidraw.com/Virgil.woff2");
      }
      @font-face {
        font-family: "Cascadia";
        src: url("https://excalidraw.com/Cascadia.woff2");
      }
    </style>
  </defs>
  <rect x="0" y="0" width="988.1111111111117" height="837.666666666667" fill="#ffffff"></rect><g stroke-linecap="round" transform="translate(66.1111111111112 218.33333333333363) rotate(0 57 51)"><path d="M0.22 -0.28 C27.45 1.14, 57.15 1.44, 115.18 -0.46 M0.45 -0.39 C42.7 0.02, 83.93 -0.39, 114.67 0.91 M112.61 0.77 C114.07 32.97, 113.28 63.79, 115.36 103.88 M113.3 -0.31 C113.4 20.84, 112.71 43.6, 113.76 102.91 M115.42 103.45 C83.45 101.69, 47.78 99.33, -1.83 102.62 M114.84 101.3 C74.91 103.36, 37.27 103.18, 0.45 102.28 M0.86 102.95 C-0.09 69.04, -0.88 39.02, 1.97 1.65 M0.55 101.43 C-0.4 78.87, 0.53 54.48, 0.57 -0.52" stroke="#000000" stroke-width="1" fill="none"></path></g><g transform="translate(71.1111111111112 256.33333333333366) rotate(0 52 13)"><text x="52" y="18" font-family="Virgil, Segoe UI Emoji" font-size="20px" fill="#000000" text-anchor="middle" style="white-space: pre;" direction="ltr">viewer</text></g><g stroke-linecap="round" transform="translate(68.11111111111126 378.00000000000034) rotate(0 57 51)"><path d="M1.13 -1.04 C35.98 1.97, 71.61 0.65, 113.12 0.59 M0.73 -0.69 C33.59 1.24, 66.54 1.16, 113.16 -0.11 M112.05 -1.85 C113.89 38.31, 112.43 81.39, 115.11 100.24 M114.04 -0.26 C113.02 27.96, 113.5 55.63, 114.95 102.82 M114.29 101.93 C74.26 100.7, 37.11 102.83, -0.14 103.36 M113.26 101.55 C81.39 100.81, 50.46 102.8, 0.83 102.42 M1.77 103.16 C0.12 63.82, -0.66 21.28, 0.71 -0.91 M-0.46 102.88 C-0.14 78.3, 0.15 55.17, -0.39 -0.88" stroke="#000000" stroke-width="1" fill="none"></path></g><g transform="translate(73.11111111111126 416.00000000000034) rotate(0 52 13)"><text x="52" y="18" font-family="Virgil, Segoe UI Emoji" font-size="20px" fill="#000000" text-anchor="middle" style="white-space: pre;" direction="ltr">viewer</text></g><g stroke-linecap="round" transform="translate(422.55555555555577 257.66666666666686) rotate(0 91.5 121)"><path d="M1.54 0.17 C56.69 0.86, 107.85 -0.07, 182.77 -1.78 M-0.19 -0.9 C71.12 0.07, 140.04 -0.05, 183.34 0.67 M183.76 0.59 C182.87 78.8, 183.53 157.56, 182.51 241.01 M183.59 -0.53 C184.35 56.76, 184.17 115.67, 182.73 241.5 M181.41 240.58 C130.04 239.19, 79.55 239.92, -0.26 243.98 M182.89 242.34 C135.1 243.68, 89.52 242.5, -0.27 242.4 M-1.43 241.22 C-1.22 185.76, 0.22 126.42, 0.48 0.07 M0.05 242.46 C-1.64 177.34, -2.06 112.14, -0.59 0.43" stroke="#000000" stroke-width="1" fill="none"></path></g><g stroke-linecap="round" transform="translate(445.5555555555559 399.77777777777806) rotate(0 67.16666666666669 44)"><path d="M0.17 0.97 C29.47 -1.29, 55.2 1.94, 134.69 1.05 M0.32 0.71 C29.19 0.73, 59.03 0.4, 134.35 -0.42 M135.4 0.1 C134.34 21.78, 135.6 43, 133.34 86.82 M135.07 -0.97 C134.85 22.98, 135.34 43.76, 133.93 87.09 M135.69 86.97 C94.01 88.91, 54.02 86.88, 1.86 87.89 M133.34 88.8 C98.67 89.35, 63.57 89.39, -0.06 88.33 M-1.6 87.81 C1.06 53.12, 0.81 22.12, 0.49 0.94 M-0.89 87.67 C-1.12 61.56, -1.45 34.29, 0.79 0.64" stroke="#000000" stroke-width="1" fill="none"></path></g><g transform="translate(450.5555555555559 404.77777777777806) rotate(0 62.166666666666686 39)"><text x="62.16666666666666" y="18" font-family="Virgil, Segoe UI Emoji" font-size="20px" fill="#000000" text-anchor="middle" style="white-space: pre;" direction="ltr">static </text><text x="62.16666666666666" y="44" font-family="Virgil, Segoe UI Emoji" font-size="20px" fill="#000000" text-anchor="middle" style="white-space: pre;" direction="ltr">objects, </text><text x="62.16666666666666" y="70" font-family="Virgil, Segoe UI Emoji" font-size="20px" fill="#000000" text-anchor="middle" style="white-space: pre;" direction="ltr">scenery etc</text></g><g stroke-linecap="round" transform="translate(468.66666666666697 702.3333333333336) rotate(0 84.77777777777777 62.666666666666686)"><path d="M-0.13 0.1 C45.61 -2.56, 90.24 -3.23, 170.44 -0.8 M0.48 -0.33 C45 0.17, 92.44 -0.93, 169.1 0.29 M167.92 0.42 C168.29 42.03, 168.74 85.25, 171.2 124.02 M170.25 0.48 C169.81 30.82, 170.84 60.87, 168.96 126.05 M169.82 127.32 C126.77 127.91, 88.32 128.51, 0.96 125.57 M169.65 125.61 C115.57 125.77, 62.78 125.84, 0.4 124.74 M-0.76 126.86 C-0.24 76.08, 1.47 26.32, 0.64 1.31 M-0.02 126.07 C-0.17 96.27, -0.55 66.67, -0.85 0.55" stroke="#000000" stroke-width="1" fill="none"></path></g><g transform="translate(473.66666666666697 726.0000000000002) rotate(0 79.77777777777777 39)"><text x="79.77777777777779" y="18" font-family="Virgil, Segoe UI Emoji" font-size="20px" fill="#000000" text-anchor="middle" style="white-space: pre;" direction="ltr">regional</text><text x="79.77777777777779" y="44" font-family="Virgil, Segoe UI Emoji" font-size="20px" fill="#000000" text-anchor="middle" style="white-space: pre;" direction="ltr">backdrop </text><text x="79.77777777777779" y="70" font-family="Virgil, Segoe UI Emoji" font-size="20px" fill="#000000" text-anchor="middle" style="white-space: pre;" direction="ltr">server/crawler</text></g><g stroke-linecap="round" transform="translate(817.1111111111112 698.4444444444449) rotate(0 57 51)"><path d="M0.27 1.59 C44.51 0.05, 89.39 -1.76, 114.71 -0.87 M0.89 0.16 C38.64 0.29, 78.86 0.66, 113.73 0.83 M112.62 1.18 C115.38 22.54, 115.8 46.29, 113.75 102.37 M113.56 0.29 C112.81 23.31, 112.37 45.16, 113.82 101.27 M112.62 102.23 C79.18 101.02, 43.25 104.03, 1.48 102.83 M113.17 101.48 C88.84 101.08, 64.73 101.64, 0.79 101.13 M1.05 102.68 C0.04 61.79, -0.65 24.91, -0.04 0.02 M-0.35 102.09 C0.86 71.78, 1.48 39.77, 0.38 -0.17" stroke="#000000" stroke-width="1" fill="none"></path></g><g transform="translate(822.1111111111112 723.4444444444449) rotate(0 52 26)"><text x="52" y="18" font-family="Virgil, Segoe UI Emoji" font-size="20px" fill="#000000" text-anchor="middle" style="white-space: pre;" direction="ltr">other </text><text x="52" y="44" font-family="Virgil, Segoe UI Emoji" font-size="20px" fill="#000000" text-anchor="middle" style="white-space: pre;" direction="ltr">zones</text></g><g stroke-linecap="round" transform="translate(807.2222222222225 708.6666666666671) rotate(0 57 51)"><path d="M0.45 0.19 C41.76 1.59, 81.45 0.88, 112.78 -1.1 M-0.81 -0.82 C29.93 1.05, 61.24 1.89, 113.56 0.68 M112.25 0.96 C115.2 36.8, 112.64 71.29, 113.07 103.63 M113.46 0.95 C113.01 32.61, 114.15 65.63, 114.38 101.56 M113 100.9 C80.97 102.02, 49.55 99.37, 1.99 102.11 M114.09 101.24 C75.66 102.08, 36.64 102.86, -0.36 101.01 M0.25 101.12 C2.01 67.85, -0.11 31.6, -0.29 1.63 M-0.2 102.17 C0.6 65.97, 0.48 29.39, 0.1 0.9" stroke="#000000" stroke-width="1" fill="none"></path></g><g stroke-linecap="round" transform="translate(444.1111111111111 10) rotate(0 70.88888888888886 51)"><path d="M-0.79 0.66 C37.22 -1.02, 72.42 0.63, 141.59 0.72 M0.16 -0.45 C29.87 1.91, 60.25 0.15, 142.39 -0.49 M140.33 1.7 C143.41 35.26, 142.97 70.7, 143.1 102.56 M141.4 -0.47 C142.43 24.97, 141.87 48.64, 141.45 101.04 M140.21 102.25 C91.9 101.75, 43.75 102.8, 0.65 103.61 M142.43 101.12 C111.03 103.32, 80.93 102.76, -0.59 102.97 M-0.39 100.77 C0.9 67.54, 0.61 31.38, 1.02 0.54 M0.46 101.94 C-1.88 68.9, -0.56 35.71, 0.69 0.69" stroke="#000000" stroke-width="1" fill="none"></path></g><g transform="translate(449.1111111111111 34.99999999999996) rotate(0 65.88888888888886 26)"><text x="65.88888888888886" y="18" font-family="Virgil, Segoe UI Emoji" font-size="20px" fill="#000000" text-anchor="middle" style="white-space: pre;" direction="ltr">dns </text><text x="65.88888888888886" y="44" font-family="Virgil, Segoe UI Emoji" font-size="20px" fill="#000000" text-anchor="middle" style="white-space: pre;" direction="ltr">x.y.z.grid.net</text></g><g stroke-linecap="round" transform="translate(860.7777777777779 222.22222222222214) rotate(0 57 51)"><path d="M-1.8 -1.47 C24.8 -1.28, 49.49 0, 114.24 -1.96 M0.33 -0.31 C24.66 1.8, 48.1 1.55, 114.27 -0.23 M115.06 0.94 C112.32 32.17, 112.5 65.12, 114.32 100.73 M114.32 -0.63 C114.21 22.47, 114.5 43.8, 114.19 101.73 M113.9 103.66 C83.84 102.68, 58.06 102.07, -0.05 103.34 M113 102.6 C85.74 102.48, 56.65 102.04, 0.3 101.06 M1.04 102.27 C-1.2 69.68, 0.67 35.41, 0.82 0.76 M-0.9 102.68 C0.89 70.45, 0.72 40.3, -0.48 -0.75" stroke="#000000" stroke-width="1" fill="none"></path></g><g transform="translate(865.7777777777779 247.22222222222214) rotate(0 52 26)"><text x="52" y="18" font-family="Virgil, Segoe UI Emoji" font-size="20px" fill="#000000" text-anchor="middle" style="white-space: pre;" direction="ltr">application</text><text x="52" y="44" font-family="Virgil, Segoe UI Emoji" font-size="20px" fill="#000000" text-anchor="middle" style="white-space: pre;" direction="ltr">a</text></g><g stroke-linecap="round" transform="translate(864.111111111111 354.44444444444434) rotate(0 57 51)"><path d="M-1.24 -0.41 C23.14 -0.57, 48.72 -1.81, 112.26 1.8 M-0.7 0.77 C30.8 1.11, 62.6 0.45, 113.5 -0.29 M112.36 0.12 C115.04 35.13, 113.9 72.56, 113 103.78 M114.25 0.92 C112.67 27.12, 113.28 52.34, 114.24 101.58 M112.38 102.72 C69.74 101.65, 25.8 102.91, 0.04 100.76 M114.26 101.26 C89.26 102.69, 63.86 102.03, -0.68 101.85 M-0.12 100.84 C-0.63 80.2, 0.4 58.03, 0.02 -0.71 M-0.89 102.7 C-0.35 81.23, -0.61 59.03, -0.38 0.76" stroke="#000000" stroke-width="1" fill="none"></path></g><g transform="translate(869.111111111111 379.44444444444434) rotate(0 52 26)"><text x="52" y="18" font-family="Virgil, Segoe UI Emoji" font-size="20px" fill="#000000" text-anchor="middle" style="white-space: pre;" direction="ltr">application</text><text x="52" y="44" font-family="Virgil, Segoe UI Emoji" font-size="20px" fill="#000000" text-anchor="middle" style="white-space: pre;" direction="ltr">b</text></g><g stroke-linecap="round" transform="translate(864.1111111111117 485.55555555555543) rotate(0 57 51)"><path d="M-0.35 -0.7 C37 -0.87, 72.49 0.27, 115.56 -1.44 M0.45 -0.48 C30.07 1.43, 59.79 1.52, 113.41 -0.81 M114.38 -1.76 C112.45 30.41, 113.4 58.27, 115.76 101.41 M114.22 -0.89 C113.47 37.32, 114.17 75.21, 114.32 102.96 M112.62 103.96 C76.65 101.73, 41.13 102.96, 0.75 102.07 M114.8 101.42 C72.89 102.69, 30.6 102.92, -0.84 102.91 M-1.38 102.42 C-2.29 79.61, -1.37 57.68, -0.97 1.08 M-0.33 101.53 C0.19 81.65, 0.09 60.61, -0.35 0.69" stroke="#000000" stroke-width="1" fill="none"></path></g><g transform="translate(869.1111111111117 510.55555555555543) rotate(0 52 26)"><text x="52" y="18" font-family="Virgil, Segoe UI Emoji" font-size="20px" fill="#000000" text-anchor="middle" style="white-space: pre;" direction="ltr">application</text><text x="52" y="44" font-family="Virgil, Segoe UI Emoji" font-size="20px" fill="#000000" text-anchor="middle" style="white-space: pre;" direction="ltr">c</text></g><g stroke-linecap="round"><g transform="translate(854.7908473700699 277.2548875916439) rotate(0 -122.01522973482633 22.005969008096542)"><path d="M0.35 0.42 C-40.44 7.7, -203.17 37.19, -243.92 44.42 M-0.93 -0.41 C-41.86 6.46, -203.78 35.03, -244.38 42.61" stroke="#364fc7" stroke-width="1" fill="none"></path></g><g transform="translate(854.7908473700699 277.2548875916439) rotate(0 -122.01522973482633 22.005969008096542)"><path d="M-217.77 29.06 C-226.87 34.33, -237.42 39.34, -245.56 42.23 M-219.13 28.27 C-227.87 33.55, -237.08 37.57, -245.06 41.65" stroke="#364fc7" stroke-width="1" fill="none"></path></g><g transform="translate(854.7908473700699 277.2548875916439) rotate(0 -122.01522973482633 22.005969008096542)"><path d="M-214.12 49.25 C-224.68 47.13, -236.57 44.75, -245.56 42.23 M-215.48 48.46 C-225.54 46.68, -236.03 43.62, -245.06 41.65" stroke="#364fc7" stroke-width="1" fill="none"></path></g></g><g stroke-linecap="round"><g transform="translate(860.9157381336289 410.88889468934485) rotate(0 -126.5064615957624 -21.816057213063573)"><path d="M-0.89 -0.84 C-43.05 -7.89, -210.83 -35.96, -253.14 -43 M0.85 1.33 C-41.42 -6.03, -211.64 -37.81, -253.86 -44.97" stroke="#364fc7" stroke-width="1" fill="none"></path></g><g transform="translate(860.9157381336289 410.88889468934485) rotate(0 -126.5064615957624 -21.816057213063573)"><path d="M-225.7 -49.37 C-232.35 -50.83, -240.96 -47.11, -253.32 -45.06 M-223.41 -49.65 C-230.41 -48.03, -236.89 -48.05, -253.58 -45.45" stroke="#364fc7" stroke-width="1" fill="none"></path></g><g transform="translate(860.9157381336289 410.88889468934485) rotate(0 -126.5064615957624 -21.816057213063573)"><path d="M-229.32 -29.17 C-234.81 -36.41, -242.37 -38.5, -253.32 -45.06 M-227.03 -29.45 C-233.08 -32.15, -238.79 -36.47, -253.58 -45.45" stroke="#364fc7" stroke-width="1" fill="none"></path></g></g><g stroke-linecap="round"><g transform="translate(856.4240252995249 548.996084096589) rotate(0 -122.37829133570051 -67.31134456460711)"><path d="M1.09 -0.01 C-39.93 -22.58, -204.12 -112.18, -245.01 -134.61 M0.2 -1.06 C-41.05 -23.57, -205.07 -111.41, -245.85 -133.52" stroke="#364fc7" stroke-width="1" fill="none"></path></g><g transform="translate(856.4240252995249 548.996084096589) rotate(0 -122.37829133570051 -67.31134456460711)"><path d="M-216.18 -128.85 C-229.28 -128.96, -240.97 -130.77, -246.47 -131.84 M-216.96 -130 C-226.68 -129.55, -237.51 -132.96, -245.21 -132.82" stroke="#364fc7" stroke-width="1" fill="none"></path></g><g transform="translate(856.4240252995249 548.996084096589) rotate(0 -122.37829133570051 -67.31134456460711)"><path d="M-225.91 -110.78 C-235.31 -118.08, -243.17 -126.99, -246.47 -131.84 M-226.69 -111.93 C-233.08 -118.07, -240.4 -127.99, -245.21 -132.82" stroke="#364fc7" stroke-width="1" fill="none"></path></g></g><g stroke-linecap="round"><g transform="translate(414.19722084198656 403.1987631776177) rotate(0 -110.70002253053337 7.037524412021156)"><path d="M-0.45 0.9 C-37.64 3.35, -185.02 11.58, -221.94 13.75 M1.52 0.32 C-35.94 2.54, -185.53 10.16, -222.92 12.14" stroke="#364fc7" stroke-width="1" fill="none"></path></g><g transform="translate(414.19722084198656 403.1987631776177) rotate(0 -110.70002253053337 7.037524412021156)"><path d="M-193.81 0.34 C-204.84 4.82, -215.58 8.36, -224.31 12.87 M-195.16 0.43 C-203.03 3.85, -210.31 7.52, -222.83 12.31" stroke="#364fc7" stroke-width="1" fill="none"></path></g><g transform="translate(414.19722084198656 403.1987631776177) rotate(0 -110.70002253053337 7.037524412021156)"><path d="M-192.74 20.83 C-204.03 17.12, -215.2 12.47, -224.31 12.87 M-194.09 20.92 C-202.4 18.86, -209.96 17.05, -222.83 12.31" stroke="#364fc7" stroke-width="1" fill="none"></path></g></g><g stroke-linecap="round"><g transform="translate(185.55555555548852 251.3485758674272) rotate(0 331.9612408242336 17.141657721943403)"><path d="M-0.53 -3.02 C55.19 6.14, 223.99 53.04, 334.82 50.59 C445.65 48.13, 609.86 -6.48, 664.45 -17.75 M1.39 -3.69 C56.99 5.72, 223.85 54.22, 334.33 52.03 C444.8 49.84, 609.62 -5.49, 664.25 -16.82" stroke="#c92a2a" stroke-width="1" fill="none"></path></g><g transform="translate(185.55555555548852 251.3485758674272) rotate(0 331.9612408242336 17.141657721943403)"><path d="M640.77 1.69 C647.76 -3.67, 655.21 -12.89, 664.22 -16.76 M639.19 -0.63 C648.38 -4.65, 656.97 -11.92, 663.39 -15.92" stroke="#c92a2a" stroke-width="1" fill="none"></path></g><g transform="translate(185.55555555548852 251.3485758674272) rotate(0 331.9612408242336 17.141657721943403)"><path d="M635.59 -18.16 C644.23 -16.75, 653.45 -19.22, 664.22 -16.76 M634 -20.48 C644.86 -17.65, 655.24 -18.06, 663.39 -15.92" stroke="#c92a2a" stroke-width="1" fill="none"></path></g></g><g stroke-linecap="round"><g transform="translate(785.3805598985731 750.8294986464373) rotate(0 -71.77275642298565 4.698160745116013)"><path d="M0.61 0.66 C-23.24 1.96, -119.41 6.89, -143.21 7.99 M-0.53 -0.04 C-24.53 1.43, -120.5 8.08, -144.16 9.44" stroke="#5c940d" stroke-width="1" fill="none"></path></g><g transform="translate(785.3805598985731 750.8294986464373) rotate(0 -71.77275642298565 4.698160745116013)"><path d="M-115.58 -2.59 C-124.97 2.68, -134.18 4.83, -144.96 10.05 M-117.29 -2.07 C-126.45 1.16, -136.06 5.56, -144.55 8.56" stroke="#5c940d" stroke-width="1" fill="none"></path></g><g transform="translate(785.3805598985731 750.8294986464373) rotate(0 -71.77275642298565 4.698160745116013)"><path d="M-114.27 17.89 C-124.07 17.19, -133.67 13.36, -144.96 10.05 M-115.98 18.41 C-125.63 14.48, -135.7 11.72, -144.55 8.56" stroke="#5c940d" stroke-width="1" fill="none"></path></g></g><g stroke-linecap="round"><g transform="translate(548.608015372468 697.9825074341653) rotate(0 -21.961961702565475 -101.3111329069377)"><path d="M1.12 -1.14 C-6.22 -35.17, -36.71 -169.89, -44.04 -203.5 M0.25 0.87 C-7.26 -33.1, -37.83 -168.77, -45.05 -202.51" stroke="#5c940d" stroke-width="1" fill="none"></path></g><g transform="translate(548.608015372468 697.9825074341653) rotate(0 -21.961961702565475 -101.3111329069377)"><path d="M-30.86 -177.37 C-35.73 -182.9, -39.37 -190.47, -43.93 -203.87 M-29.58 -176.31 C-33.38 -183.57, -37.2 -189.63, -45.08 -203.02" stroke="#5c940d" stroke-width="1" fill="none"></path></g><g transform="translate(548.608015372468 697.9825074341653) rotate(0 -21.961961702565475 -101.3111329069377)"><path d="M-50.9 -172.95 C-49.73 -180.01, -47.31 -188.92, -43.93 -203.87 M-49.62 -171.89 C-48.75 -180.21, -47.92 -187.29, -45.08 -203.02" stroke="#5c940d" stroke-width="1" fill="none"></path></g></g><g transform="translate(543.2222222222227 559.7777777777778) rotate(0 42.5 38.5)"><text x="0" y="17.666666666666668" font-family="Virgil, Segoe UI Emoji" font-size="20px" fill="#5c940d" text-anchor="start" style="white-space: pre;" direction="ltr">pull </text><text x="0" y="43.333333333333336" font-family="Virgil, Segoe UI Emoji" font-size="20px" fill="#5c940d" text-anchor="start" style="white-space: pre;" direction="ltr">rendered</text><text x="0" y="69" font-family="Virgil, Segoe UI Emoji" font-size="20px" fill="#5c940d" text-anchor="start" style="white-space: pre;" direction="ltr">backdrop</text></g><g transform="translate(665.555555555556 685.3333333333334) rotate(0 68 25.5)"><text x="0" y="18.5" font-family="Virgil, Segoe UI Emoji" font-size="20px" fill="#5c940d" text-anchor="start" style="white-space: pre;" direction="ltr">pull simplified </text><text x="0" y="44" font-family="Virgil, Segoe UI Emoji" font-size="20px" fill="#5c940d" text-anchor="start" style="white-space: pre;" direction="ltr">zone objects</text></g><g transform="translate(455.55555555555554 278.6666666666667) rotate(0 67 13.000000000000014)"><text x="0" y="18" font-family="Virgil, Segoe UI Emoji" font-size="20px" fill="#000000" text-anchor="start" style="white-space: pre;" direction="ltr">zone 1.1.1 host</text></g><g transform="translate(751.1111111111113 298.66666666666663) rotate(0 44.50000000000006 25.5)"><text x="0" y="18.5" font-family="Virgil, Segoe UI Emoji" font-size="20px" fill="#364fc7" text-anchor="start" style="white-space: pre;" direction="ltr">object</text><text x="0" y="44" font-family="Virgil, Segoe UI Emoji" font-size="20px" fill="#364fc7" text-anchor="start" style="white-space: pre;" direction="ltr">stream b</text></g><g transform="translate(768.3888888888891 404.66666666666674) rotate(0 44.50000000000006 25.5)"><text x="0" y="18.5" font-family="Virgil, Segoe UI Emoji" font-size="20px" fill="#364fc7" text-anchor="start" style="white-space: pre;" direction="ltr">object</text><text x="0" y="44" font-family="Virgil, Segoe UI Emoji" font-size="20px" fill="#364fc7" text-anchor="start" style="white-space: pre;" direction="ltr">stream b</text></g><g transform="translate(727.2777777777778 515.777777777778) rotate(0 44.5 25.5)"><text x="0" y="18.5" font-family="Virgil, Segoe UI Emoji" font-size="20px" fill="#364fc7" text-anchor="start" style="white-space: pre;" direction="ltr">object</text><text x="0" y="44" font-family="Virgil, Segoe UI Emoji" font-size="20px" fill="#364fc7" text-anchor="start" style="white-space: pre;" direction="ltr">stream c</text></g><g transform="translate(203.3333333333336 429.7777777777778) rotate(0 100.5 13)"><text x="0" y="18" font-family="Virgil, Segoe UI Emoji" font-size="20px" fill="#364fc7" text-anchor="start" style="white-space: pre;" direction="ltr">scene object stream</text></g><g transform="translate(184.00000000000017 333.55555555555554) rotate(0 100.49999999999997 13)"><text x="0" y="18" font-family="Virgil, Segoe UI Emoji" font-size="20px" fill="#364fc7" text-anchor="start" style="white-space: pre;" direction="ltr">scene object stream</text></g><g transform="translate(313.33333333333366 220.88888888888883) rotate(0 32.49999999999997 25.5)"><text x="0" y="18.5" font-family="Virgil, Segoe UI Emoji" font-size="20px" fill="#c92a2a" text-anchor="start" style="white-space: pre;" direction="ltr">click</text><text x="0" y="44" font-family="Virgil, Segoe UI Emoji" font-size="20px" fill="#c92a2a" text-anchor="start" style="white-space: pre;" direction="ltr">events</text></g><g stroke-linecap="round"><g transform="translate(147.45080890037104 216.55555555555557) rotate(0 188.5258407267723 -44.29126174863846)"><path d="M-0.66 0.83 C48.63 -20.99, 233.64 -138.94, 296.7 -131.87 C359.76 -124.79, 364.11 14.16, 377.71 43.28 M1.2 0.22 C50.31 -21.38, 233.59 -137.6, 296.18 -130.72 C358.77 -123.84, 363 12.94, 376.74 41.5" stroke="#e67700" stroke-width="1" fill="none"></path></g><g transform="translate(147.45080890037104 216.55555555555557) rotate(0 188.5258407267723 -44.29126174863846)"><path d="M361.56 17.83 C365.06 25.49, 374.43 35.99, 377.77 43.38 M360.86 17.05 C367.11 26.07, 373.2 34.4, 375.97 42.23" stroke="#e67700" stroke-width="1" fill="none"></path></g><g transform="translate(147.45080890037104 216.55555555555557) rotate(0 188.5258407267723 -44.29126174863846)"><path d="M381.52 13.05 C377.34 22.42, 379.06 34.76, 377.77 43.38 M380.81 12.27 C379.96 22.95, 378.9 33, 375.97 42.23" stroke="#e67700" stroke-width="1" fill="none"></path></g></g><g stroke-linecap="round"><g transform="translate(146.7632480661738 376.55555555555566) rotate(0 177.2693382280843 -136.32041480755936)"><path d="M1.11 -1.05 C49.98 -46.47, 234.83 -252.44, 293.69 -272.38 C352.55 -292.32, 344.47 -145.77, 354.3 -120.69 M0.24 1.02 C49.45 -44.24, 237.08 -250.29, 296.06 -270.93 C355.03 -291.57, 344.66 -147.76, 354.09 -122.81" stroke="#e67700" stroke-width="1" fill="none"></path></g><g transform="translate(146.7632480661738 376.55555555555566) rotate(0 177.2693382280843 -136.32041480755936)"><path d="M338.85 -150.7 C344.99 -138.77, 350.59 -132.28, 352.76 -123.33 M340.78 -150.35 C345.37 -143.01, 347.69 -135.75, 354.16 -123.4" stroke="#e67700" stroke-width="1" fill="none"></path></g><g transform="translate(146.7632480661738 376.55555555555566) rotate(0 177.2693382280843 -136.32041480755936)"><path d="M359.23 -153.11 C358.39 -140.16, 357 -132.85, 352.76 -123.33 M361.16 -152.76 C360.21 -144.79, 356.99 -136.87, 354.16 -123.4" stroke="#e67700" stroke-width="1" fill="none"></path></g></g><g transform="translate(184.4444444444445 79.77777777777776) rotate(0 91.49999999999997 13)"><text x="0" y="18" font-family="Virgil, Segoe UI Emoji" font-size="20px" fill="#e67700" text-anchor="start" style="white-space: pre;" direction="ltr">loopkup 1.1.1.grid.net</text></g><g stroke-linecap="round" transform="translate(695.5555555555558 19.88888888888887) rotate(0 80.55555555555554 65.55555555555556)"><path d="M-0.46 0.65 C48.82 -0.15, 96.31 -1.29, 162.15 -1.62 M0.59 -0.38 C36.53 1.27, 73.17 0.37, 161.37 -0.64 M162.77 -1.34 C163.56 37.51, 160.72 76.39, 162.83 131.55 M161.12 0.57 C160.96 43.52, 162.04 85.66, 160.63 131.93 M159.33 130.54 C119.11 129.26, 74.52 130.8, 0.35 130.95 M161.18 130.88 C109.93 131.67, 57.75 131.39, 0.56 130.54 M1.72 130.01 C0.53 85.48, 0.52 39.08, 0.89 1.66 M-0.93 131.17 C1.82 83.32, 0.39 36.81, 0.39 0.04" stroke="#000000" stroke-width="1" fill="none"></path></g><g transform="translate(726.666666666667 47.55555555555553) rotate(0 54 25.5)"><text x="0" y="18.5" font-family="Virgil, Segoe UI Emoji" font-size="20px" fill="#000000" text-anchor="start" style="white-space: pre;" direction="ltr">neighboring </text><text x="0" y="44" font-family="Virgil, Segoe UI Emoji" font-size="20px" fill="#000000" text-anchor="start" style="white-space: pre;" direction="ltr">zone hosts</text></g><g stroke-linecap="round"><g transform="translate(698.8888888888891 132.1111111111111) rotate(0 -73.47541552028048 132.50277153772095)"><path d="M-0.31 0.49 C-25.14 44.74, -124.03 220.29, -148.67 264.39 M1.72 -0.31 C-22.75 44.15, -121.29 220.9, -146.43 265.31" stroke="#5c940d" stroke-width="1" fill="none"></path></g><g transform="translate(698.8888888888891 132.1111111111111) rotate(0 -73.47541552028048 132.50277153772095)"><path d="M-140.77 234.22 C-145.37 244.56, -145.77 252.82, -145.44 265.22 M-142.08 236.48 C-142.69 245.41, -145.04 255.3, -147.3 265.46" stroke="#5c940d" stroke-width="1" fill="none"></path></g><g transform="translate(698.8888888888891 132.1111111111111) rotate(0 -73.47541552028048 132.50277153772095)"><path d="M-122.88 244.26 C-133.13 251.32, -139.28 256.36, -145.44 265.22 M-124.19 246.53 C-130.88 252.22, -139.23 258.74, -147.3 265.46" stroke="#5c940d" stroke-width="1" fill="none"></path></g></g><g transform="translate(684.4444444444447 189.77777777777774) rotate(0 63 25.5)"><text x="0" y="18.5" font-family="Virgil, Segoe UI Emoji" font-size="20px" fill="#5c940d" text-anchor="start" style="white-space: pre;" direction="ltr">pull simplified</text><text x="0" y="44" font-family="Virgil, Segoe UI Emoji" font-size="20px" fill="#5c940d" text-anchor="start" style="white-space: pre;" direction="ltr">zone objects</text></g><g transform="translate(11.111111111111256 595.3333333333336) rotate(0 49 25.5)"><text x="0" y="18.5" font-family="Virgil, Segoe UI Emoji" font-size="20px" fill="#5c940d" text-anchor="start" style="white-space: pre;" direction="ltr">http GET</text><text x="0" y="44" font-family="Virgil, Segoe UI Emoji" font-size="20px" fill="#5c940d" text-anchor="start" style="white-space: pre;" direction="ltr"></text></g><g transform="translate(10 556.4444444444446) rotate(0 187 13)"><text x="0" y="18" font-family="Virgil, Segoe UI Emoji" font-size="20px" fill="#364fc7" text-anchor="start" style="white-space: pre;" direction="ltr">RTP stream (jitter buffer over UDP)</text></g><g transform="translate(12.222222222222172 639.7777777777779) rotate(0 190.5 13)"><text x="0" y="18" font-family="Virgil, Segoe UI Emoji" font-size="20px" fill="#c92a2a" text-anchor="start" style="white-space: pre;" direction="ltr">TCP push (web socket, or http POST)</text></g><g transform="translate(11.111111111111143 682.0000000000001) rotate(0 55 13)"><text x="0" y="18" font-family="Virgil, Segoe UI Emoji" font-size="20px" fill="#e67700" text-anchor="start" style="white-space: pre;" direction="ltr">DNS lookup</text></g><g transform="translate(16.666666666666828 514.2222222222224) rotate(0 19 13)"><text x="0" y="18" font-family="Virgil, Segoe UI Emoji" font-size="20px" fill="#000000" text-anchor="start" style="white-space: pre;" direction="ltr">Key:</text></g><g stroke-linecap="round"><g transform="translate(183.33333333333337 263.22222222222223) rotate(0 342.91396535353533 124.52130367015963)"><path d="M-0.51 -0.83 C57.32 11.92, 231.82 35.13, 346.3 76.78 C460.77 118.43, 629.78 220, 686.34 249.06 M1.42 1.34 C59.12 14.2, 231.06 36.37, 345.15 77.79 C459.25 119.22, 629.18 221.33, 685.99 249.88" stroke="#c92a2a" stroke-width="1" fill="none"></path></g><g transform="translate(183.33333333333337 263.22222222222223) rotate(0 342.91396535353533 124.52130367015963)"><path d="M654.93 244.8 C661.91 247.94, 669.25 247.9, 687.8 249.42 M656.26 245.8 C665.49 247.32, 676.96 248.09, 685.28 248.91" stroke="#c92a2a" stroke-width="1" fill="none"></path></g><g transform="translate(183.33333333333337 263.22222222222223) rotate(0 342.91396535353533 124.52130367015963)"><path d="M664.73 226.78 C669.36 234.28, 674.3 238.64, 687.8 249.42 M666.06 227.77 C672.15 235.31, 680.29 242.2, 685.28 248.91" stroke="#c92a2a" stroke-width="1" fill="none"></path></g></g><g stroke-linecap="round"><g transform="translate(424.4444444444447 329.8888888888889) rotate(0 -121.60968415830445 -22.28152043173708)"><path d="M-0.05 -0.39 C-40.53 -7.76, -201.93 -37.11, -242.6 -44.18 M-1.53 -1.64 C-42.14 -8.88, -203.16 -35.88, -243.17 -43.08" stroke="#364fc7" stroke-width="1" fill="none"></path></g><g transform="translate(424.4444444444447 329.8888888888889) rotate(0 -121.60968415830445 -22.28152043173708)"><path d="M-214.29 -47.17 C-224.64 -47.91, -231.92 -46.66, -244.74 -45 M-214.57 -47.83 C-220.65 -47.81, -228.5 -46.12, -243.04 -43.43" stroke="#364fc7" stroke-width="1" fill="none"></path></g><g transform="translate(424.4444444444447 329.8888888888889) rotate(0 -121.60968415830445 -22.28152043173708)"><path d="M-217.79 -26.95 C-227.01 -34.25, -233.16 -39.58, -244.74 -45 M-218.07 -27.6 C-223.08 -32.78, -230.04 -36.25, -243.04 -43.43" stroke="#364fc7" stroke-width="1" fill="none"></path></g></g></svg>